<svg width="142" height="21" viewBox="0 0 142 21" fill="none" xmlns="http://www.w3.org/2000/svg">
    <path fill-rule="evenodd" clip-rule="evenodd" d="M77.9237 9.78693C77.9237 9.78693 76.5558 8.95491 75.71 8.63298C75.71 8.63298 73.0918 7.43932 72.5724 6.8714C72.5724 6.8714 71.552 5.92545 72.1495 4.82673C72.1495 4.82673 72.3995 4.10777 73.4779 4.10777C73.4779 4.10777 74.8817 4.18373 74.8817 5.31869V6.91973H79.9128L79.9041 4.56176C79.9041 4.56176 80.291 0.700284 73.978 0.530255C73.978 0.530255 69.0127 0.209179 67.5887 2.83989C67.5887 2.83989 67.0298 3.42679 67.0298 5.4706V6.94735C67.0298 6.94735 66.9727 8.6511 67.8572 9.74895C67.8572 9.74895 68.3573 10.4688 69.5892 11.2628C69.5892 11.2628 72.0907 12.5877 73.5919 13.3463C73.5919 13.3463 75.1072 14.1973 74.9081 15.5515C74.9081 15.5515 74.7843 16.942 73.3208 16.885C73.3208 16.885 71.9828 16.8263 71.9828 15.4626V13.8625H66.6218V16.1868C66.6218 16.1868 66.4717 20.6317 73.3603 20.6317C73.3603 20.6317 79.9427 20.7629 80.2498 16.0702V14.1775C80.2489 14.1775 80.4823 11.3017 77.9237 9.78693ZM52.1664 1.0835L50.4817 11.4682H50.0878L48.4786 1.17671H40.0747L39.6535 19.9827H44.6294L44.689 5.81325H45.0804L47.7179 19.9801H52.9525L55.5576 5.81843H55.9041L56.0243 19.9827H61.0265L60.4878 1.0835H52.1664ZM22.5466 1.16204L19.2361 19.9611H24.5927L26.5537 5.38515H26.9942L28.9543 19.9611H34.3101L31.0005 1.16204H22.5466ZM134.945 9.528V12.3011H136.319V15.2779C136.319 16.7331 135.055 16.7599 135.055 16.7599C133.518 16.7599 133.576 15.3772 133.576 15.3772V5.08048C133.576 4.01974 134.94 3.96277 134.94 3.96277C136.249 3.96277 136.258 5.22807 136.258 5.22807V6.79372H141.301C141.466 3.73751 140.847 2.99784 140.847 2.99784C139.595 0.234215 134.863 0.385256 134.863 0.385256C127.59 0.385256 128.397 5.87453 128.397 5.87453V15.8303C128.553 20.9787 135.72 20.4556 135.841 20.4513C139.029 20.1043 139.991 19.1075 139.991 19.1075C140.877 18.4602 141.105 17.5634 141.105 17.5634C141.359 17.0412 141.422 15.3772 141.422 15.3772V9.528H134.945ZM118.228 12.5877H118.008L112.89 1.08867H106.767V19.9844H111.751L111.452 8.48711H111.675L116.977 19.9844H122.915V1.08695H117.868L118.228 12.5877ZM94.6016 15.2762C94.6016 15.2762 94.6736 16.8272 93.2118 16.8272C93.2118 16.8272 91.6746 16.9083 91.6746 15.315L91.6588 1.09989H86.1925V15.202C86.1925 15.202 85.6318 20.5393 93.289 20.5393C93.289 20.5393 99.9433 20.617 99.9433 15.4471V1.10076H94.6016V15.2762ZM12.1255 9.78693C12.1255 9.78693 10.7594 8.95491 9.9127 8.63384C9.9127 8.63384 7.29625 7.44104 6.77682 6.87226C6.77682 6.87226 5.75638 5.92458 6.35478 4.82846C6.35478 4.82846 6.60396 4.1095 7.68143 4.1095C7.68143 4.1095 9.08617 4.18459 9.08617 5.31956V6.9206H14.119L14.1094 4.56176C14.1094 4.56176 14.4937 0.700283 8.18331 0.531117C8.18331 0.531117 7.70775 0.500907 7.01021 0.53543C7.01021 0.53543 3.18731 0.737395 1.8203 2.80019C1.8124 2.81572 1.801 2.82695 1.7931 2.84076C1.7931 2.84076 1.23507 3.42679 1.23507 5.47146V6.94821C1.23507 6.94821 1.17716 8.65196 2.06247 9.74982C2.06247 9.74982 2.56259 10.4696 3.79448 11.2637C3.79448 11.2637 6.29511 12.5885 7.79637 13.3472C7.79637 13.3472 9.31342 14.1965 9.11249 15.5524C9.11249 15.5524 8.98878 16.9428 7.52613 16.8859C7.52613 16.8859 6.18807 16.8272 6.18807 15.4635V13.8625H0.826189V16.1885C0.826189 16.1885 0.676152 20.6334 7.56473 20.6334C7.56473 20.6334 14.1453 20.7646 14.4551 16.072V14.1809C14.4551 14.1792 14.685 11.3017 12.1255 9.78693Z" fill="#AFB0B4"/>
</svg>
