<svg width="46" height="46" viewBox="0 0 46 46" fill="none" xmlns="http://www.w3.org/2000/svg">
    <circle cx="23" cy="23" r="23" fill="#FFD600" fill-opacity="0.1"/>
    <g clip-path="url(#clip0_9_0)">
        <path d="M22.9002 31.4219H26.1701C26.617 30.6519 27.4502 30.1328 28.4023 30.1328H20.668C21.6202 30.1328 22.4533 30.6519 22.9002 31.4219Z" fill="#FFD600"/>
        <path d="M30.6346 31.4219H31.625V30.1328H28.4023C29.3545 30.1328 30.1877 30.6519 30.6346 31.4219Z" fill="#FFD600"/>
        <path d="M17.7083 28.9688C18.1827 28.6195 18.5157 28.1154 18.6575 27.5547H31.5408L33 17.1562H16.8091L16.155 13.8639C16.1183 12.8299 15.2656 12 14.2227 12H11V13.2891H14.2227C14.5781 13.2891 14.8672 13.5782 14.8672 13.9336V13.997L17.4445 26.9693C17.4355 27.3476 17.2503 27.7052 16.9443 27.9307C15.4496 29.0308 16.2235 31.4219 18.0898 31.4219H18.4357C18.8826 30.6519 19.7158 30.1328 20.668 30.1328H18.0898C17.4692 30.1328 17.208 29.3366 17.7083 28.9688ZM25.1797 23.6875V18.4453H27.7578V23.6875H25.1797ZM23.8906 23.6875H21.3125V18.4453H23.8906V23.6875ZM30.782 23.6875H29.0469V18.4453H31.5176L30.782 23.6875ZM20.0234 18.4453V23.6875H18.1067L17.0653 18.4453H20.0234Z" fill="#FFD600"/>
        <path d="M20.668 34C21.3799 34 21.957 33.4229 21.957 32.7109C21.957 31.999 21.3799 31.4219 20.668 31.4219C19.956 31.4219 19.3789 31.999 19.3789 32.7109C19.3789 33.4229 19.956 34 20.668 34Z" fill="#FFD600"/>
        <path d="M28.4023 34C29.1143 34 29.6914 33.4229 29.6914 32.7109C29.6914 31.999 29.1143 31.4219 28.4023 31.4219C27.6904 31.4219 27.1133 31.999 27.1133 32.7109C27.1133 33.4229 27.6904 34 28.4023 34Z" fill="#FFD600"/>
    </g>
    <defs>
        <clipPath id="clip0_9_0">
            <rect width="22" height="22" fill="white" transform="translate(11 12)"/>
        </clipPath>
    </defs>
</svg>
