<svg width="46" height="46" viewBox="0 0 46 46" fill="none" xmlns="http://www.w3.org/2000/svg">
    <circle cx="23" cy="23" r="23" fill="#FFD600" fill-opacity="0.1"/>
    <g clip-path="url(#clip0_1_46)">
        <path d="M27.9663 15.0312C26.64 13.7049 24.8764 12.9744 23.0008 12.9744C21.1249 12.9744 19.3617 13.7049 18.0353 15.0312C15.5808 17.4854 15.2758 22.103 17.3747 24.9007L23.0008 33.0256L28.6185 24.912C30.7259 22.103 30.4209 17.4854 27.9663 15.0312ZM23.0656 22.4952C21.6525 22.4952 20.5023 21.345 20.5023 19.9319C20.5023 18.5188 21.6525 17.3686 23.0656 17.3686C24.4788 17.3686 25.6289 18.5188 25.6289 19.9319C25.6289 21.345 24.4788 22.4952 23.0656 22.4952Z" fill="#FFD600"/>
    </g>
    <defs>
        <clipPath id="clip0_1_46">
            <rect width="20.0513" height="20.0513" fill="white" transform="translate(12.9744 12.9744)"/>
        </clipPath>
    </defs>
</svg>

