<svg width="46" height="46" viewBox="0 0 46 46" fill="none" xmlns="http://www.w3.org/2000/svg">
    <circle cx="23" cy="23" r="23" fill="#FFD600" fill-opacity="0.1"/>
    <g clip-path="url(#clip0_1_50)">
        <path d="M32.5511 28.806L29.4624 25.7169C28.8472 25.1042 27.8284 25.1228 27.1918 25.7597L25.6357 27.3154C25.5374 27.2612 25.4356 27.2046 25.3286 27.1446C24.346 26.6001 23.0011 25.8539 21.5858 24.4376C20.1663 23.0183 19.4194 21.6713 18.8732 20.688C18.8156 20.5838 18.7604 20.4834 18.7059 20.388L19.7502 19.3452L20.2637 18.8311C20.9013 18.1933 20.9189 17.1748 20.3051 16.5603L17.2164 13.4709C16.6026 12.8572 15.5834 12.8759 14.9458 13.5137L14.0753 14.3892L14.0991 14.4128C13.8072 14.7852 13.5633 15.2148 13.3817 15.678C13.2144 16.1189 13.1103 16.5397 13.0626 16.9613C12.6548 20.3424 14.1998 23.4325 18.3929 27.6256C24.1891 33.4214 28.86 32.9835 29.0615 32.9622C29.5004 32.9097 29.921 32.8048 30.3484 32.6388C30.8076 32.4595 31.2369 32.2159 31.6091 31.9246L31.6281 31.9415L32.51 31.078C33.1463 30.4403 33.1646 29.4215 32.5511 28.806Z" fill="#FFD600"/>
    </g>
    <defs>
        <clipPath id="clip0_1_50">
            <rect width="20" height="20" fill="white" transform="translate(13 13)"/>
        </clipPath>
    </defs>
</svg>
