<svg width="21" height="21" viewBox="0 0 21 21" fill="none" xmlns="http://www.w3.org/2000/svg">
    <g clip-path="url(#clip0_70_1069)">
        <path d="M17.444 2.10648H13.6929V0.684797C13.6929 0.306633 13.3863 0 13.0081 0H7.99226C7.61409 0 7.30746 0.306592 7.30746 0.684797V2.10648H3.55638C3.17821 2.10648 2.87158 2.41307 2.87158 2.79128V4.89772C2.87158 5.27588 3.17817 5.58251 3.55638 5.58251H3.76441L4.39031 20.3443C4.40581 20.7108 4.70756 21 5.07445 21H15.9259C16.2928 21 16.5945 20.7108 16.61 20.3442L17.2359 5.58247H17.4439C17.8221 5.58247 18.1287 5.27588 18.1287 4.89768V2.79128C18.1288 2.41303 17.8222 2.10648 17.444 2.10648ZM8.67706 1.36955H12.3233V2.10648H8.67706V1.36955ZM15.2696 19.6304H5.73082L5.13519 5.58251H15.8651L15.2696 19.6304ZM16.7592 4.21292C16.137 4.21292 4.61393 4.21292 4.24118 4.21292V3.47603H16.7592V4.21292Z" fill="#AFB0B4"/>
        <path d="M7.74486 7.68245C7.36669 7.68245 7.06006 7.98904 7.06006 8.36725V16.8457C7.06006 17.2239 7.36665 17.5305 7.74486 17.5305C8.12302 17.5305 8.42965 17.224 8.42965 16.8457V8.36725C8.42961 7.98904 8.12302 7.68245 7.74486 7.68245Z" fill="#AFB0B4"/>
        <path d="M10.5002 7.68245C10.1221 7.68245 9.81543 7.98904 9.81543 8.36725V16.8457C9.81543 17.2239 10.122 17.5305 10.5002 17.5305C10.8784 17.5305 11.185 17.224 11.185 16.8457V8.36725C11.185 7.98904 10.8784 7.68245 10.5002 7.68245Z" fill="#AFB0B4"/>
        <path d="M13.2546 7.68245C12.8765 7.68245 12.5698 7.98904 12.5698 8.36725V16.8457C12.5698 17.2239 12.8764 17.5305 13.2546 17.5305C13.6328 17.5305 13.9394 17.224 13.9394 16.8457V8.36725C13.9394 7.98904 13.6328 7.68245 13.2546 7.68245Z" fill="#AFB0B4"/>
    </g>
    <defs>
        <clipPath id="clip0_70_1069">
            <rect width="21" height="21" fill="white"/>
        </clipPath>
    </defs>
</svg>
